<svg xmlns="http://www.w3.org/2000/svg" xmlns:xlink="http://www.w3.org/1999/xlink" width="200" zoomAndPan="magnify" viewBox="0 0 150 60" height="80" preserveAspectRatio="xMidYMid meet" version="1.0"><defs><g/></defs><g fill="#ffb000" fill-opacity="1"><g transform="translate(14.707119, 36.75)"><g><path d="M 11.472656 0 L 7.773438 -5.320312 L 4.136719 0 L 0.0664062 0 L 5.734375 -7.792969 L 0.351562 -15.324219 L 4.378906 -15.324219 L 7.902344 -10.355469 L 11.363281 -15.324219 L 15.195312 -15.324219 L 9.851562 -7.925781 L 15.566406 0 Z M 11.472656 0 "/></g></g></g><g fill="#ffffff" fill-opacity="1"><g transform="translate(30.339931, 36.75)"><g><path d="M 9.152344 0.261719 C 7.589844 0.261719 6.175781 -0.078125 4.914062 -0.753906 C 3.652344 -1.433594 2.660156 -2.375 1.9375 -3.578125 C 1.214844 -4.785156 0.855469 -6.144531 0.855469 -7.664062 C 0.855469 -9.179688 1.214844 -10.542969 1.9375 -11.746094 C 2.660156 -12.949219 3.652344 -13.890625 4.914062 -14.570312 C 6.175781 -15.25 7.597656 -15.585938 9.171875 -15.585938 C 10.5 -15.585938 11.703125 -15.355469 12.773438 -14.886719 C 13.847656 -14.417969 14.75 -13.75 15.476562 -12.871094 L 13.203125 -10.769531 C 12.164062 -11.96875 10.878906 -12.566406 9.347656 -12.566406 C 8.398438 -12.566406 7.554688 -12.359375 6.808594 -11.941406 C 6.0625 -11.527344 5.484375 -10.945312 5.066406 -10.203125 C 4.652344 -9.457031 4.445312 -8.609375 4.445312 -7.664062 C 4.445312 -6.714844 4.652344 -5.867188 5.066406 -5.121094 C 5.484375 -4.378906 6.0625 -3.796875 6.808594 -3.382812 C 7.554688 -2.964844 8.398438 -2.757812 9.347656 -2.757812 C 10.878906 -2.757812 12.164062 -3.363281 13.203125 -4.574219 L 15.476562 -2.472656 C 14.75 -1.582031 13.84375 -0.90625 12.761719 -0.4375 C 11.683594 0.0273438 10.480469 0.261719 9.152344 0.261719 Z M 9.152344 0.261719 "/></g></g></g><g fill="#ffffff" fill-opacity="1"><g transform="translate(46.385726, 36.75)"><g><path d="M 13.441406 -11.777344 L 13.441406 0 L 10.203125 0 L 10.203125 -1.402344 C 9.75 -0.890625 9.210938 -0.5 8.582031 -0.230469 C 7.953125 0.0390625 7.277344 0.175781 6.546875 0.175781 C 5 0.175781 3.773438 -0.269531 2.867188 -1.160156 C 1.964844 -2.050781 1.511719 -3.371094 1.511719 -5.121094 L 1.511719 -11.777344 L 4.925781 -11.777344 L 4.925781 -5.625 C 4.925781 -3.730469 5.722656 -2.78125 7.3125 -2.78125 C 8.128906 -2.78125 8.785156 -3.046875 9.28125 -3.578125 C 9.777344 -4.113281 10.027344 -4.902344 10.027344 -5.953125 L 10.027344 -11.777344 Z M 13.441406 -11.777344 "/></g></g></g><g fill="#ffffff" fill-opacity="1"><g transform="translate(61.424555, 36.75)"><g><path d="M 4.839844 -10.222656 C 5.246094 -10.792969 5.796875 -11.222656 6.492188 -11.515625 C 7.183594 -11.808594 7.984375 -11.953125 8.886719 -11.953125 L 8.886719 -8.800781 C 8.507812 -8.828125 8.253906 -8.84375 8.121094 -8.84375 C 7.144531 -8.84375 6.378906 -8.570312 5.824219 -8.023438 C 5.269531 -7.476562 4.992188 -6.65625 4.992188 -5.5625 L 4.992188 0 L 1.578125 0 L 1.578125 -11.777344 L 4.839844 -11.777344 Z M 4.839844 -10.222656 "/></g></g></g><g fill="#ffffff" fill-opacity="1"><g transform="translate(70.859396, 36.75)"><g><path d="M 4.839844 -10.222656 C 5.246094 -10.792969 5.796875 -11.222656 6.492188 -11.515625 C 7.183594 -11.808594 7.984375 -11.953125 8.886719 -11.953125 L 8.886719 -8.800781 C 8.507812 -8.828125 8.253906 -8.84375 8.121094 -8.84375 C 7.144531 -8.84375 6.378906 -8.570312 5.824219 -8.023438 C 5.269531 -7.476562 4.992188 -6.65625 4.992188 -5.5625 L 4.992188 0 L 1.578125 0 L 1.578125 -11.777344 L 4.839844 -11.777344 Z M 4.839844 -10.222656 "/></g></g></g><g fill="#ffffff" fill-opacity="1"><g transform="translate(80.294237, 36.75)"><g><path d="M 13.113281 -5.84375 C 13.113281 -5.800781 13.089844 -5.496094 13.046875 -4.925781 L 4.136719 -4.925781 C 4.296875 -4.195312 4.675781 -3.621094 5.277344 -3.195312 C 5.875 -2.773438 6.617188 -2.5625 7.507812 -2.5625 C 8.121094 -2.5625 8.664062 -2.652344 9.140625 -2.835938 C 9.613281 -3.015625 10.054688 -3.304688 10.464844 -3.699219 L 12.28125 -1.730469 C 11.171875 -0.460938 9.550781 0.175781 7.421875 0.175781 C 6.09375 0.175781 4.917969 -0.0820312 3.898438 -0.601562 C 2.875 -1.121094 2.085938 -1.839844 1.53125 -2.757812 C 0.976562 -3.679688 0.699219 -4.722656 0.699219 -5.890625 C 0.699219 -7.042969 0.972656 -8.082031 1.523438 -9.007812 C 2.070312 -9.933594 2.820312 -10.65625 3.777344 -11.175781 C 4.734375 -11.695312 5.800781 -11.953125 6.984375 -11.953125 C 8.136719 -11.953125 9.179688 -11.707031 10.113281 -11.207031 C 11.046875 -10.710938 11.78125 -10 12.316406 -9.074219 C 12.847656 -8.148438 13.113281 -7.070312 13.113281 -5.84375 Z M 7.003906 -9.371094 C 6.230469 -9.371094 5.582031 -9.152344 5.058594 -8.714844 C 4.53125 -8.273438 4.210938 -7.675781 4.09375 -6.917969 L 9.894531 -6.917969 C 9.777344 -7.664062 9.457031 -8.257812 8.933594 -8.703125 C 8.40625 -9.148438 7.765625 -9.371094 7.003906 -9.371094 Z M 7.003906 -9.371094 "/></g></g></g><g fill="#ffffff" fill-opacity="1"><g transform="translate(94.107198, 36.75)"><g><path d="M 8.734375 -11.953125 C 10.195312 -11.953125 11.375 -11.515625 12.269531 -10.640625 C 13.167969 -9.765625 13.617188 -8.464844 13.617188 -6.742188 L 13.617188 0 L 10.203125 0 L 10.203125 -6.21875 C 10.203125 -7.152344 9.996094 -7.847656 9.589844 -8.308594 C 9.179688 -8.769531 8.589844 -8.996094 7.816406 -8.996094 C 6.953125 -8.996094 6.269531 -8.730469 5.757812 -8.199219 C 5.246094 -7.667969 4.992188 -6.875 4.992188 -5.824219 L 4.992188 0 L 1.578125 0 L 1.578125 -11.777344 L 4.839844 -11.777344 L 4.839844 -10.398438 C 5.289062 -10.894531 5.851562 -11.277344 6.523438 -11.546875 C 7.195312 -11.816406 7.933594 -11.953125 8.734375 -11.953125 Z M 8.734375 -11.953125 "/></g></g></g><g fill="#ffffff" fill-opacity="1"><g transform="translate(109.233586, 36.75)"><g><path d="M 7.269531 0.175781 C 6.011719 0.175781 4.886719 -0.0820312 3.886719 -0.601562 C 2.886719 -1.121094 2.105469 -1.839844 1.542969 -2.757812 C 0.980469 -3.679688 0.699219 -4.722656 0.699219 -5.890625 C 0.699219 -7.058594 0.980469 -8.101562 1.542969 -9.019531 C 2.105469 -9.9375 2.886719 -10.65625 3.886719 -11.175781 C 4.886719 -11.695312 6.011719 -11.953125 7.269531 -11.953125 C 8.507812 -11.953125 9.59375 -11.695312 10.519531 -11.175781 C 11.445312 -10.65625 12.121094 -9.917969 12.542969 -8.953125 L 9.894531 -7.53125 C 9.28125 -8.609375 8.398438 -9.152344 7.246094 -9.152344 C 6.355469 -9.152344 5.617188 -8.859375 5.035156 -8.273438 C 4.453125 -7.691406 4.160156 -6.894531 4.160156 -5.890625 C 4.160156 -4.882812 4.453125 -4.085938 5.035156 -3.503906 C 5.617188 -2.917969 6.355469 -2.628906 7.246094 -2.628906 C 8.414062 -2.628906 9.296875 -3.167969 9.894531 -4.246094 L 12.542969 -2.800781 C 12.121094 -1.867188 11.445312 -1.136719 10.519531 -0.613281 C 9.59375 -0.0859375 8.507812 0.175781 7.269531 0.175781 Z M 7.269531 0.175781 "/></g></g></g><g fill="#ffffff" fill-opacity="1"><g transform="translate(122.170913, 36.75)"><g><path d="M 13.265625 -11.777344 L 7.945312 0.722656 C 7.40625 2.078125 6.738281 3.035156 5.945312 3.589844 C 5.148438 4.144531 4.1875 4.421875 3.066406 4.421875 C 2.453125 4.421875 1.847656 4.328125 1.246094 4.136719 C 0.648438 3.949219 0.160156 3.683594 -0.21875 3.347656 L 1.027344 0.917969 C 1.292969 1.152344 1.59375 1.335938 1.9375 1.46875 C 2.28125 1.597656 2.621094 1.664062 2.957031 1.664062 C 3.421875 1.664062 3.800781 1.550781 4.09375 1.324219 C 4.386719 1.097656 4.648438 0.722656 4.882812 0.195312 L 4.925781 0.0859375 L -0.175781 -11.777344 L 3.347656 -11.777344 L 6.65625 -3.789062 L 9.984375 -11.777344 Z M 13.265625 -11.777344 "/></g></g></g></svg>